<svg width="255" height="129" viewBox="0 0 255 129" fill="none" xmlns="http://www.w3.org/2000/svg">
<rect width="255" height="129" fill="white"/>
<g clip-path="url(#clip0_325_4707)">
<path d="M143.833 65.8333H112.166V71.6666H143.833V65.8333Z" fill="white"/>
<path d="M135.499 75.8333H112.166V81.6666H135.499V75.8333Z" fill="white"/>
<path d="M136.333 46.6666L144.924 47.0833L154.666 46.6666L136.333 28.3333L135.916 39.525L136.333 46.6666Z" fill="#0066DA"/>
<path d="M143.833 55.8333H112.166V61.6666H143.833V55.8333Z" fill="white"/>
<path d="M136.334 46.6666V28.3333H106.334C103.571 28.3333 101.334 30.5708 101.334 33.3333V96.6666C101.334 99.4291 103.571 101.667 106.334 101.667H149.667C152.43 101.667 154.667 99.4291 154.667 96.6666V46.6666H136.334ZM134.667 80.8333H113.001V76.6666H134.667V80.8333ZM143.001 70.8333H113.001V66.6666H143.001V70.8333ZM143.001 60.8333H113.001V56.6666H143.001V60.8333Z" fill="#2684FC"/>
</g>
<defs>
<clipPath id="clip0_325_4707">
<rect width="80" height="80" fill="white" transform="translate(88 25)"/>
</clipPath>
</defs>
</svg>
