<svg width="255" height="129" viewBox="0 0 255 129" fill="none" xmlns="http://www.w3.org/2000/svg">
<rect width="255" height="129" fill="white"/>
<path d="M155.166 29.9166H113.666C109.862 29.9166 106.749 33.0291 106.749 36.8333V78.3333C106.749 82.1375 109.862 85.25 113.666 85.25H155.166C158.97 85.25 162.083 82.1375 162.083 78.3333V36.8333C162.083 33.0291 158.97 29.9166 155.166 29.9166ZM155.166 78.3333H113.666V36.8333H155.166V78.3333ZM99.8327 43.75H92.916V92.1666C92.916 95.9708 96.0285 99.0833 99.8327 99.0833H148.249V92.1666H99.8327V43.75ZM141.333 64.5V54.125C141.333 52.2229 139.776 50.6666 137.874 50.6666H130.958V67.9583H137.874C139.776 67.9583 141.333 66.402 141.333 64.5ZM134.416 54.125H137.874V64.5H134.416V54.125ZM148.249 61.0416H151.708V57.5833H148.249V54.125H151.708V50.6666H144.791V67.9583H148.249V61.0416ZM120.583 61.0416H124.041C125.943 61.0416 127.499 59.4854 127.499 57.5833V54.125C127.499 52.2229 125.943 50.6666 124.041 50.6666H117.124V67.9583H120.583V61.0416ZM120.583 54.125H124.041V57.5833H120.583V54.125Z" fill="#EA4335"/>
</svg>
