<svg width="255" height="129" viewBox="0 0 255 129" fill="none" xmlns="http://www.w3.org/2000/svg">
<rect width="255" height="129" fill="white"/>
<g clip-path="url(#clip0_325_4723)">
<path d="M149.667 101.667H106.334C103.571 101.667 101.334 99.4291 101.334 96.6666V33.3333C101.334 30.5708 103.571 28.3333 106.334 28.3333H136.334L154.667 46.6666V96.6666C154.667 99.4291 152.43 101.667 149.667 101.667Z" fill="#00AC47"/>
<path d="M136.334 28.3333L154.667 46.6666H136.334V28.3333Z" fill="#00832D"/>
<path d="M140.501 56.6667H130.084H125.917H115.501H111.334V60.8334V66.6667V70.8334V76.6667V80.8334H115.501H125.917H130.084H140.501H144.667V76.6667V70.8334V66.6667V60.8334V56.6667H140.501ZM115.501 60.8334H125.917V66.6667H115.501V60.8334ZM115.501 76.6667V70.8334H125.917V76.6667H115.501ZM140.501 76.6667H130.084V70.8334H140.501V76.6667ZM140.501 66.6667H130.084V60.8334H140.501V66.6667Z" fill="white"/>
</g>
<defs>
<clipPath id="clip0_325_4723">
<rect width="80" height="80" fill="white" transform="translate(88 25)"/>
</clipPath>
</defs>
</svg>
