<?xml version="1.0" encoding="UTF-8"?>
<svg id="Layer_1" data-name="Layer 1" xmlns="http://www.w3.org/2000/svg" xmlns:xlink="http://www.w3.org/1999/xlink" viewBox="0 0 49.02 11.49">
  <defs>
    <style>
      .cls-1 {
        fill: url(#linear-gradient-2);
      }

      .cls-2 {
        fill: #1a73e8;
      }

      .cls-3 {
        clip-path: url(#clippath);
      }

      .cls-4 {
        fill: none;
      }

      .cls-5 {
        fill: #5f6368;
      }

      .cls-6 {
        fill: url(#linear-gradient-3);
      }

      .cls-7 {
        fill: url(#linear-gradient);
      }
    </style>
    <clipPath id="clippath">
      <rect class="cls-4" x="-6.51" y="-5.6" width="61.98" height="23.16"/>
    </clipPath>
    <linearGradient id="linear-gradient" x1="947.18" y1="-539.42" x2="939.47" y2="-525.01" gradientTransform="translate(-467.26 -259.28) scale(.5 -.5)" gradientUnits="userSpaceOnUse">
      <stop offset="0" stop-color="#1e8e3e"/>
      <stop offset="1" stop-color="#34a853"/>
    </linearGradient>
    <linearGradient id="linear-gradient-2" x1="946.01" y1="-539.53" x2="953.72" y2="-525.12" gradientTransform="translate(-467.26 -259.28) scale(.5 -.5)" gradientUnits="userSpaceOnUse">
      <stop offset="0" stop-color="#fcc934"/>
      <stop offset="1" stop-color="#fbbc04"/>
    </linearGradient>
    <linearGradient id="linear-gradient-3" x1="937.83" y1="-527.02" x2="955.15" y2="-527.02" gradientTransform="translate(-467.26 -259.28) scale(.5 -.5)" gradientUnits="userSpaceOnUse">
      <stop offset="0" stop-color="#d93025"/>
      <stop offset="1" stop-color="#ea4335"/>
    </linearGradient>
  </defs>
  <g class="cls-3">
    <path class="cls-7" d="M5.99,8.29c-.91,0-1.71-.45-2.15-1.13-.01-.02-.02-.04-.03-.06L1.66,3.66c-.43,.68-.67,1.47-.67,2.32,0,2.56,2.24,4.63,5,4.63l2.15-3.45c-.44,.68-1.23,1.13-2.15,1.13Z"/>
    <path class="cls-1" d="M10.32,3.66H5.99c1.38,0,2.5,1.04,2.5,2.32,0,.41-.12,.79-.32,1.13-.01,.02-.02,.04-.03,.06l-2.15,3.45c2.76,0,5-2.07,5-4.63,0-.84-.24-1.63-.67-2.32Z"/>
    <path class="cls-6" d="M10.32,3.66c-.86-1.38-2.48-2.32-4.33-2.32S2.52,2.28,1.66,3.66l2.15,3.44c-.2-.33-.32-.72-.32-1.13,0-1.28,1.12-2.32,2.5-2.32h4.33Z"/>
    <path class="cls-2" d="M8.04,5.98c0-1.05-.92-1.9-2.05-1.9s-2.05,.85-2.05,1.9c0,.34,.09,.65,.26,.93l.03,.05c.36,.56,1.01,.93,1.76,.93s1.4-.37,1.76-.93l.03-.05c.17-.27,.26-.59,.26-.93Z"/>
    <path class="cls-5" d="M14.94,8.49c-.56,0-1.02-.17-1.38-.52-.36-.35-.54-.79-.54-1.31s.18-.96,.54-1.31c.36-.35,.82-.52,1.38-.52,.42,0,.76,.09,1.03,.28s.47,.42,.6,.71l-.64,.25c-.19-.43-.54-.65-1.04-.65-.31,0-.58,.12-.82,.35-.24,.24-.35,.53-.35,.9s.12,.66,.35,.89c.24,.24,.51,.35,.82,.35,.52,0,.88-.21,1.08-.65l.62,.25c-.13,.28-.33,.52-.61,.71-.28,.19-.63,.29-1.05,.29Z"/>
    <path class="cls-5" d="M17.9,3.34v1.59l-.03,.48h.03c.1-.16,.26-.3,.48-.42,.22-.11,.45-.17,.7-.17,.46,0,.81,.13,1.06,.39,.24,.26,.36,.62,.36,1.06v2.11h-.7v-2.01c0-.64-.31-.96-.92-.96-.29,0-.52,.11-.71,.32-.18,.21-.27,.46-.27,.74v1.91h-.7V3.34h.7Z"/>
    <path class="cls-5" d="M22.03,8.38h-.7v-3.45h.67v.56h.03c.07-.19,.22-.34,.44-.47,.22-.12,.43-.18,.64-.18s.38,.03,.52,.09l-.27,.61c-.09-.03-.22-.05-.37-.05-.25,0-.48,.09-.67,.28-.2,.19-.29,.43-.29,.73v1.89h0Z"/>
    <path class="cls-5" d="M24.15,5.34c.36-.35,.82-.52,1.38-.52s1.02,.17,1.38,.52c.36,.35,.54,.79,.54,1.31s-.18,.96-.54,1.31c-.36,.35-.82,.52-1.38,.52s-1.02-.17-1.38-.52c-.36-.35-.54-.79-.54-1.31,0-.53,.18-.96,.54-1.31Zm.52,2.22c.24,.23,.53,.34,.86,.34s.61-.11,.86-.34c.24-.23,.36-.53,.36-.9s-.12-.68-.36-.9c-.24-.23-.53-.34-.86-.34s-.61,.11-.86,.34c-.24,.23-.36,.53-.36,.9s.12,.68,.36,.9Z"/>
    <path class="cls-5" d="M28.08,8.38v-3.45h.67v.48h.03c.11-.16,.27-.3,.49-.42,.22-.11,.44-.17,.66-.17,.58,0,.97,.22,1.18,.66,.3-.44,.74-.66,1.3-.66,.44,0,.77,.13,1,.39,.22,.26,.33,.61,.33,1.06v2.11h-.7v-2.01c0-.35-.07-.59-.21-.74-.14-.14-.34-.22-.62-.22s-.5,.11-.68,.32c-.18,.22-.27,.46-.27,.74v1.91h-.7v-2.01c0-.35-.07-.59-.21-.74-.14-.14-.34-.22-.62-.22s-.5,.11-.68,.32c-.18,.22-.27,.46-.27,.74v1.91h-.69Z"/>
    <path class="cls-5" d="M36.24,8.49c-.56,0-1.02-.17-1.37-.52-.35-.35-.53-.79-.53-1.32,0-.5,.17-.93,.51-1.3,.34-.36,.78-.54,1.31-.54s.99,.17,1.33,.5c.33,.33,.5,.78,.5,1.34v.12h-2.95c.02,.35,.15,.62,.38,.82,.23,.2,.5,.3,.81,.3,.5,0,.84-.2,1.02-.59l.62,.24c-.12,.27-.32,.49-.6,.67-.28,.18-.62,.27-1.03,.27Zm1-2.25c-.02-.2-.11-.39-.29-.56-.18-.18-.45-.27-.8-.27-.26,0-.48,.08-.67,.23-.19,.15-.32,.35-.39,.61h2.16Z"/>
    <path class="cls-5" d="M43.27,7.73c-.53,.51-1.2,.76-2,.76s-1.46-.25-2-.76c-.53-.51-.8-1.13-.8-1.87s.27-1.36,.8-1.87c.53-.51,1.2-.76,2-.76s1.45,.26,1.99,.77c.54,.51,.81,1.13,.81,1.87s-.27,1.36-.8,1.87Zm-3.47-.42c.4,.38,.9,.57,1.48,.57s1.08-.19,1.48-.57,.6-.86,.6-1.45-.2-1.07-.6-1.45c-.4-.38-.9-.57-1.48-.57s-1.08,.19-1.48,.57c-.4,.38-.6,.86-.6,1.45,0,.59,.2,1.07,.6,1.45Z"/>
    <path class="cls-5" d="M46.14,8.49c-.4,0-.78-.12-1.16-.36-.38-.24-.62-.57-.74-1.01l.64-.24c.08,.28,.23,.51,.47,.7s.5,.29,.79,.29,.56-.07,.78-.22c.22-.15,.32-.35,.32-.6,0-.28-.11-.5-.32-.65-.22-.15-.56-.29-1.02-.43-.48-.14-.85-.32-1.09-.55-.25-.22-.37-.51-.37-.86s.15-.68,.46-.94c.31-.27,.71-.4,1.21-.4,.46,0,.84,.11,1.12,.32,.29,.21,.48,.45,.56,.7l-.64,.25c-.05-.16-.16-.31-.34-.44s-.41-.2-.7-.2c-.27,0-.5,.07-.69,.21-.19,.14-.28,.31-.28,.52,0,.19,.09,.35,.26,.47,.17,.13,.43,.24,.77,.35,.27,.08,.49,.16,.67,.23,.18,.08,.36,.17,.55,.3,.18,.12,.32,.28,.42,.47,.09,.19,.14,.4,.14,.64s-.05,.46-.16,.65c-.11,.19-.25,.34-.43,.46-.18,.11-.37,.2-.58,.26-.21,.06-.42,.09-.64,.09Z"/>
  </g>
</svg>